<?xml version="1.0" encoding="iso-8859-1"?>
<!-- Uploaded to: SVG Repo, www.svgrepo.com, Generator: SVG Repo Mixer Tools -->
<svg fill="#000000" height="800px" width="800px" version="1.1" id="Layer_1" xmlns="http://www.w3.org/2000/svg" xmlns:xlink="http://www.w3.org/1999/xlink" 
	 viewBox="0 0 500.004 500.004" xml:space="preserve">
<g>
	<g>
		<path d="M363.584,38.066c-46.176,0-88.18,22.564-113.576,60.948c-25.396-38.388-67.4-61.188-113.58-61.188
			C61.2,37.83,0,99.574,0,174.798c0,18.164,3.08,36.032,9.08,55.564h108.624v-0.004c4.696,0,8.94,2.224,10.78,6.544l7.14,16.512
			l22.636-60.3c1.744-4.648,6.084-7.788,11.18-7.66c4.956,0.088,9.316,3.256,10.892,7.956l24.544,73.288l10.484-29.108
			c1.656-4.684,6.08-7.232,11.048-7.232h49.696c4.7,0,8.94,2.22,10.776,6.54l7.148,16.524l22.64-60.308
			c1.744-4.64,6.072-7.788,11.176-7.66c4.956,0.088,9.316,3.256,10.896,7.956l24.536,73.268l10.496-29.128
			c1.648-4.692,6.08-7.192,11.048-7.192h106.136c5.98-19.532,9.048-37.416,9.048-55.552
			C500.004,99.578,438.808,38.066,363.584,38.066z"/>
	</g>
</g>
<g>
	<g>
		<path d="M393.104,253.798l-19.072,54.376c-1.652,4.692-6.084,8.124-11.048,8.124c-0.032,0-0.064,0-0.096,0
			c-4.996,0-9.424-4.2-11.008-8.932l-24.9-74.828l-21.324,56.452c-1.688,4.48-5.932,7.364-10.716,7.468
			c-4.944,0.096-9.152-2.196-11.028-6.596l-15.568-36.064h-33.66l-19.068,54.336c-1.656,4.684-6.084,8.164-11.048,8.164
			c-0.028,0-0.064,0-0.096,0c-5,0-9.424-4.2-11.012-8.932l-24.892-74.828l-21.328,56.668c-1.688,4.48-5.932,7.564-10.716,7.564
			c-0.084,0-0.168,0-0.248,0c-4.692,0-8.936-2.42-10.78-6.752l-15.552-36.216H18.248c19.836,42.964,55.608,85.948,106.228,127.484
			c61.172,50.192,123.196,80.348,123.82,80.652c0.536,0.256,1.124,0.24,1.708,0.24c0.584,0,1.172-0.2,1.708-0.464
			c0.62-0.3,62.648-30.148,123.816-80.34c50.656-41.568,86.444-84.604,106.272-127.576H393.104z"/>
	</g>
</g>
</svg>