<?xml version="1.0" encoding="iso-8859-1"?>
<!-- Uploaded to: SVG Repo, www.svgrepo.com, Generator: SVG Repo Mixer Tools -->
<svg fill="#000000" height="800px" width="800px" version="1.1" id="Layer_1" xmlns="http://www.w3.org/2000/svg" xmlns:xlink="http://www.w3.org/1999/xlink" 
	 viewBox="0 0 512 512" xml:space="preserve">
<g transform="translate(1 1)">
	<g>
		<g>
			<path d="M412.44,313.88h-31.159c-3.339-11.891-12.884-21.165-25.161-23.893c-3.413-15.36-17.067-26.453-33.28-26.453
				c-14.507,0-28.16,9.387-32.427,23.893c-0.853,0.853-1.707,1.707-2.56,1.707c-1.707,0-2.56-1.707-2.56-1.707
				c-4.267-6.827-12.8-12.8-23.04-14.507c-0.607-2.734-1.545-5.329-2.758-7.753c1.193-4.558,2.043-9.165,2.609-13.774
				c9.867-7.143,18.216-17.032,22.284-22.119c27.002-1.481,55.518-17.436,55.518-59.607c0-5.12-3.413-8.533-8.533-8.533
				c-38.297,0-58.714,19.503-59.687,56.906c-1.803,2.412-4.951,6.409-8.831,10.448c-0.782-16.314-4.003-31.524-6.765-43.23
				c10.416-3.163,18.243-11.268,21.523-22.418c1.707,0.853,4.267,1.707,6.827,1.707c9.387,0.853,17.92-2.56,24.747-9.387
				c8.533-8.533,11.093-20.48,7.68-31.573c13.653-3.413,23.04-16.213,23.04-30.72c0-14.507-9.387-26.453-23.04-30.72
				c4.267-11.093,1.707-23.04-7.68-32.427c-9.387-9.387-19.627-10.24-25.6-9.387c-2.56,0-4.267,0.853-6.827,1.707
				C273.347,9.24,260.547-1,246.04-1c-14.507,0-26.453,10.24-30.72,23.04c-1.707-0.853-4.267-1.707-6.827-1.707
				c-6.827-0.853-16.213,0-25.6,9.387c-10.24,10.24-11.947,22.187-7.68,32.427c-12.8,3.413-23.04,16.213-23.04,30.72
				c0,14.507,10.24,27.307,23.04,31.573c-4.267,11.093-1.707,22.187,7.68,31.573c6.827,6.827,15.36,10.24,24.747,9.387
				c2.56,0,5.12-0.853,7.68-1.707c2.819,11.276,11.467,19.625,23.042,22.196c4.211,16.843,9.565,41.185,6.591,64.486
				c-4.774-2.5-10.213-3.909-15.98-3.909c-5.973,0-11.093,1.707-16.213,4.267c-5.973-7.68-16.213-12.8-26.453-12.8
				c-16.213,0-29.867,11.093-33.28,26.453c-6.827,0.853-12.8,4.267-17.067,9.387c-6.827,6.827-10.24,16.213-9.387,25.6
				c0.248,5.218,1.806,10.142,4.343,14.507H97.56c-11.947,0-22.187,10.24-22.187,22.187v7.68c0,11.947,10.24,22.187,22.187,22.187
				h5.483l45.609,128H92.44c-5.12,0-8.533,3.413-8.533,8.533S87.32,511,92.44,511h62.293h199.68h53.76
				c5.12,0,8.533-3.413,8.533-8.533s-3.413-8.533-8.533-8.533h-47.742l45.137-128h6.018c11.947,0,22.187-10.24,23.04-22.187v-7.68
				C434.627,324.12,424.387,313.88,412.44,313.88z M322.84,179.053c-3.413,23.04-20.48,30.72-33.28,33.28
				C292.12,191.853,302.36,181.613,322.84,179.053z M231.533,155.16c0-1.707,0.853-3.413,0.853-4.267
				c0.853-5.973-2.56-9.387-4.267-10.24c-1.707-0.853-2.56-0.853-4.267-0.853c-2.56,0-4.267,0.853-6.827,2.56
				c-3.413,3.413-6.827,5.973-11.093,5.973c-3.413,0.853-7.68-0.853-11.093-4.267c-7.68-8.533-3.413-17.067,1.707-23.04
				c2.56-2.56,3.413-6.827,1.707-10.24c-0.853-2.56-4.267-5.12-10.24-4.267c-0.853,0-3.413,0.853-4.267,0.853
				c-7.68,0-14.507-6.827-14.507-14.507s5.973-14.507,14.507-14.507c0.853,0,3.413,0.853,4.267,0.853
				c5.973,0.853,9.387-2.56,10.24-4.267c1.707-3.413,0.853-7.68-1.707-10.24c-3.413-4.267-11.093-13.653-1.707-23.04
				c4.267-3.413,7.68-4.267,11.947-4.267c3.413,0,7.68,2.56,11.093,5.973c2.56,2.56,6.827,3.413,10.24,1.707
				c2.56-1.707,5.12-4.267,4.267-10.24c-0.853-0.853-0.853-3.413-0.853-4.267c0-7.68,5.973-14.507,14.507-14.507
				s15.36,6.827,15.36,14.507c0,1.707-0.853,3.413-0.853,4.267c-0.853,5.973,1.707,8.533,4.267,10.24
				c3.413,1.707,7.68,0.853,10.24-1.707c3.413-3.413,7.68-5.12,11.093-5.973c4.267-0.853,7.68,0.853,11.093,4.267
				c9.387,10.24,1.707,19.627-1.707,23.893c-2.56,3.413-3.413,6.827-1.707,10.24c0.853,1.707,3.413,5.12,10.24,4.267
				c0.853,0,2.56-0.853,4.267-0.853c8.533,0,14.507,6.827,14.507,14.507s-6.827,14.507-14.507,14.507
				c-1.707,0-3.413-0.853-4.267-0.853c-5.973-0.853-9.387,2.56-10.24,4.267c-1.707,3.413-0.853,7.68,1.707,10.24
				s10.24,12.8,0.853,22.187c-3.413,3.413-6.827,4.267-11.093,4.267c-3.413-0.853-7.68-2.56-11.093-5.973
				c-2.56-2.56-6.827-3.413-10.24-1.707c-2.56,0.853-5.12,4.267-4.267,10.24c0.853,0.853,0.853,3.413,0.853,4.267
				c0,8.533-5.973,14.507-14.507,14.507C238.36,169.667,231.533,162.84,231.533,155.16z M143.64,298.52
				c0-4.267,1.707-9.387,4.267-12.8c3.413-3.413,7.68-5.12,12.8-5.12c5.12,0,8.533-3.413,8.533-8.533
				c0-9.387,7.68-17.067,17.067-17.067c6.827,0,13.653,4.267,16.213,11.093c0.853,2.56,3.413,4.267,5.973,5.12s5.973,0,7.68-2.56
				c3.413-3.413,7.68-5.12,12.8-5.12c5.268,0,9.998,2.42,13.135,6.203c0.46,1.303,1.223,2.506,2.235,3.513
				c1.076,2.232,1.697,4.719,1.697,7.351c0,5.12,3.413,8.533,8.533,8.533c7.68,0,14.507,3.413,17.067,7.68
				c4.267,5.973,10.24,9.387,17.067,9.387c8.533,0,16.213-5.973,18.773-13.653c1.707-6.827,8.533-11.947,16.213-11.947
				c9.387,0,17.067,7.68,17.067,17.067c0,5.12,3.413,8.533,8.533,8.533c5.634,0,11.265,3.039,14.035,7.68H156.692
				C149.415,311.661,144.325,305.37,143.64,298.52z M166.68,493.933l-25.6-75.947l6.827,5.973c3.413,2.56,13.653,10.24,30.72,10.24
				c8.533,0,15.36-4.267,21.333-8.533c2.56-2.56,5.12-4.267,7.68-5.12c13.653-5.12,17.067-4.267,23.893,2.56l33.28,34.987
				c5.973,6.827,16.213,11.093,28.16,10.24c10.24,0,20.48-4.267,29.867-11.947l12.8-11.093c3.413-2.56,7.68-3.413,11.947-0.853
				l10.24,5.973l-15.36,43.52H166.68z M363.33,434.887l-8.916-4.954c-9.387-5.973-22.187-5.12-31.573,2.56l-12.8,11.093
				c-4.267,3.413-11.093,8.533-19.627,8.533c-5.973,0-11.947-1.707-14.507-5.12l-33.28-35.84
				c-14.507-13.653-26.453-12.8-42.667-5.973c-4.267,1.707-7.68,4.267-11.093,6.827c-4.267,3.413-8.533,5.973-11.947,5.973
				c-11.093,0-17.067-5.12-19.627-6.827l-28.776-25.234l-7.064-19.992h266.24L363.33,434.887z M417.56,343.747
				c0,2.56-2.56,5.12-5.12,5.12h-0.853H97.56c-2.56,0-5.12-2.56-5.12-4.267v-7.68c0-2.56,2.56-5.12,5.12-5.12v-0.853h57.059
				c2.523,0.552,5.131,0.853,7.794,0.853H374.04c1.509,0,2.865-0.304,4.034-0.853h34.366c2.56,0,5.12,2.56,5.12,5.12V343.747z"/>
			<path d="M280.173,92.867c0-18.773-15.36-34.133-34.133-34.133c-18.773,0-34.133,15.36-34.133,34.133
				c0,18.773,15.36,34.133,34.133,34.133C264.813,127,280.173,111.64,280.173,92.867z M228.973,92.867
				c0-9.387,7.68-17.067,17.067-17.067s17.067,7.68,17.067,17.067c0,9.387-7.68,17.067-17.067,17.067
				S228.973,102.253,228.973,92.867z"/>
		</g>
	</g>
</g>
</svg>