<?xml version="1.0" standalone="no"?>
<!DOCTYPE svg PUBLIC "-//W3C//DTD SVG 20010904//EN"
 "http://www.w3.org/TR/2001/REC-SVG-20010904/DTD/svg10.dtd">
<svg version="1.0" xmlns="http://www.w3.org/2000/svg"
 width="300.000000pt" height="188.000000pt" viewBox="0 0 300.000000 188.000000"
 preserveAspectRatio="xMidYMid meet">
<metadata>
Created by potrace 1.10, written by Peter Selinger 2001-2011
</metadata>
<g transform="translate(0.000000,188.000000) scale(0.100000,-0.100000)"
fill="#000000" stroke="none">
<path d="M2701 1604 c-11 -14 -25 -42 -31 -62 -6 -20 -14 -44 -17 -52 -3 -8
-5 -23 -4 -33 1 -10 -7 -21 -21 -26 -13 -6 -17 -10 -10 -10 7 -1 12 -14 12
-31 0 -21 5 -30 16 -30 10 0 14 -6 11 -14 -4 -9 2 -17 14 -21 10 -4 19 -13 19
-22 0 -10 6 -13 16 -9 9 3 19 6 23 6 17 0 8 46 -14 72 -14 16 -25 34 -25 39 0
13 17 11 26 -2 3 -6 17 -9 30 -6 14 2 28 -1 32 -8 4 -6 15 -14 25 -18 9 -4 17
-17 17 -30 0 -27 17 -47 39 -47 10 0 12 3 5 8 -6 4 -17 18 -24 31 -10 19 -10
22 2 16 32 -19 48 -40 48 -62 0 -43 24 -19 26 26 3 53 -34 94 -78 87 -29 -4
-37 14 -19 42 6 10 10 8 14 -10 6 -22 7 -22 21 -3 17 24 12 63 -17 120 -14 27
-22 35 -25 23 -2 -9 -10 -19 -18 -22 -21 -8 -18 31 4 43 15 8 14 11 -11 20
-44 17 -64 13 -86 -15z m39 -5 c0 -5 11 -22 25 -37 14 -15 25 -33 25 -40 0 -7
5 -10 10 -7 14 8 13 -31 -1 -58 -25 -46 -62 -50 -84 -7 -14 27 -14 34 0 66 10
25 12 41 5 54 -11 21 -3 53 11 44 5 -3 9 -10 9 -15z m-50 -140 c0 -7 -8 -18
-17 -25 -11 -8 -13 -13 -5 -14 14 0 17 -30 2 -30 -18 0 -23 30 -10 56 14 25
30 32 30 13z"/>
<path d="M252 1594 c-27 -19 -52 -65 -51 -96 0 -13 3 -17 6 -10 2 6 12 12 20
12 11 0 14 7 9 24 -3 14 -1 28 7 34 14 11 68 22 62 12 -6 -10 17 -94 29 -103
7 -5 5 -11 -6 -18 -35 -20 -8 -93 45 -124 l29 -17 -8 -82 c-8 -93 -8 -87 1
-147 7 -42 5 -47 -14 -52 -11 -3 -21 -1 -21 4 0 16 -67 10 -124 -12 -48 -19
-56 -25 -56 -48 0 -14 -13 -72 -29 -129 -17 -57 -35 -136 -42 -176 -14 -80
-13 -81 86 -306 18 -41 36 -94 40 -117 5 -32 12 -42 30 -47 13 -3 31 -3 39 0
24 9 19 -1 -20 -40 -31 -31 -41 -35 -79 -34 -47 2 -86 -19 -63 -33 22 -14 104
-10 118 5 6 8 19 12 28 9 14 -4 14 -3 3 5 -12 9 -12 13 -2 26 21 26 34 19 28
-14 -4 -17 -2 -30 3 -30 6 0 10 16 10 35 0 19 5 44 12 54 8 14 8 29 -1 64 -9
37 -8 64 5 139 11 65 14 118 10 175 -7 78 9 243 23 243 3 0 6 50 5 110 -1 120
11 140 32 54 l12 -49 1 44 c1 42 2 43 16 25 22 -29 18 -6 -6 33 -20 32 -20 39
-9 114 8 61 8 84 0 94 -9 11 -7 21 10 45 24 33 19 56 -4 24 -14 -18 -15 -17
-30 17 -19 46 -40 165 -32 185 10 25 -12 92 -34 104 -27 15 -62 12 -88 -6z
m78 -600 c0 -10 6 -14 15 -10 8 3 15 1 15 -3 0 -5 -5 -11 -11 -13 -14 -5 -20
-68 -7 -68 11 0 10 -87 -2 -130 -5 -19 -12 -107 -14 -195 -2 -88 -7 -174 -11
-192 -6 -32 -12 -87 -14 -130 -1 -31 -31 -30 -31 1 0 13 -3 39 -6 57 -4 26 -3
30 5 19 8 -11 11 -11 11 -2 0 7 -6 15 -14 18 -11 4 -10 14 6 57 11 28 20 77
21 109 1 32 7 58 12 58 6 0 1 7 -9 15 -20 15 -20 15 0 15 17 1 17 2 2 10 -10
6 -20 29 -24 58 -3 26 -14 55 -24 64 -11 10 -16 27 -14 45 2 15 1 20 -2 10 -3
-9 -10 -14 -16 -11 -7 4 -8 2 -4 -5 4 -6 -2 -48 -14 -93 -14 -54 -18 -91 -14
-112 4 -17 7 -34 6 -38 -1 -5 2 -8 6 -8 21 0 65 -130 51 -151 -8 -12 -12 -11
-24 5 -8 11 -15 27 -15 35 0 9 -11 40 -25 69 -13 28 -21 52 -17 52 4 0 2 4 -3
8 -17 12 -31 84 -24 122 21 116 42 197 56 212 8 9 12 21 9 26 -3 5 -1 22 4 38
7 24 8 25 9 7 1 -28 6 -28 38 -3 14 11 21 20 14 20 -15 0 -10 22 9 37 21 18
50 16 50 -3z m-70 -428 c5 -16 10 -54 9 -85 l0 -56 -13 35 c-7 19 -23 56 -34
81 -20 44 -20 47 -4 109 l17 63 7 -59 c5 -32 12 -72 18 -88z"/>
<path d="M787 1593 c-8 -10 -21 -40 -28 -68 -6 -27 -16 -58 -21 -68 -5 -10
-11 -35 -13 -55 -7 -71 -12 -92 -25 -107 -11 -13 -15 -13 -21 -3 -5 7 -9 8 -9
2 0 -5 7 -19 15 -30 14 -18 14 -18 15 6 0 16 3 21 10 14 6 -6 12 -44 13 -85 2
-46 9 -87 20 -108 12 -25 14 -37 6 -42 -8 -5 -8 -9 1 -14 18 -11 37 12 22 27
-17 17 -15 39 8 91 13 29 18 56 14 71 -5 22 4 80 23 149 3 13 11 17 24 14 10
-3 24 2 31 11 11 13 10 15 -5 9 -12 -5 -26 1 -43 18 -27 27 -32 55 -9 55 8 0
15 5 15 11 0 6 -7 9 -15 5 -10 -3 -15 1 -15 13 0 10 7 24 15 31 8 7 15 21 15
31 0 15 7 11 35 -18 19 -20 35 -42 36 -48 1 -5 2 -37 3 -70 1 -49 4 -60 18
-60 9 0 20 -4 24 -8 4 -4 24 -7 45 -7 29 0 39 -5 44 -21 4 -11 9 -18 12 -16
13 14 -20 46 -49 49 -38 4 -58 35 -66 105 -2 24 -9 40 -14 37 -6 -4 -8 2 -4
14 5 13 -2 30 -20 51 -30 36 -81 42 -107 14z m-17 -193 c0 -22 -4 -40 -10 -40
-16 0 -23 49 -10 65 18 22 20 19 20 -25z m6 -72 c-3 -13 -6 -32 -6 -43 0 -17
-2 -17 -10 -5 -17 27 -12 -38 6 -77 13 -27 14 -37 5 -46 -10 -9 -15 -8 -26 7
-8 10 -11 24 -8 30 4 6 6 25 4 42 -3 40 16 114 31 114 6 0 8 -9 4 -22z"/>
<path d="M1473 1578 c-32 -35 -53 -83 -53 -121 0 -18 -6 -39 -12 -45 -7 -7
-11 -28 -10 -46 3 -28 -1 -34 -20 -40 -13 -3 -28 -6 -34 -6 -16 0 -54 74 -73
143 -14 54 -21 65 -53 82 l-37 20 -28 -21 c-15 -12 -31 -34 -35 -50 -4 -16
-14 -60 -22 -98 -20 -86 -56 -187 -66 -181 -4 2 -5 -6 -3 -18 2 -12 -2 -31
-11 -42 -13 -19 -15 -18 -21 20 -11 66 -33 114 -67 144 -32 29 -48 31 -48 8 0
-7 17 -20 39 -29 33 -14 40 -23 50 -65 6 -26 17 -61 23 -78 6 -16 13 -50 15
-75 6 -54 22 -78 24 -34 1 16 1 33 0 38 -5 25 24 124 44 151 13 16 25 39 28
50 3 14 5 15 6 4 0 -9 10 -19 22 -22 14 -4 18 -10 14 -19 -5 -7 8 2 28 21 34
32 35 35 22 61 -13 26 -13 29 8 44 l22 17 -24 -12 c-22 -10 -27 -8 -48 15 -23
28 -31 66 -13 66 6 0 10 -7 10 -15 0 -8 5 -15 11 -15 7 0 5 10 -5 25 -9 14
-12 25 -7 25 5 0 11 7 14 14 4 10 1 13 -9 9 -7 -3 -14 0 -14 6 0 6 6 11 14 11
8 0 21 3 30 6 10 4 22 -5 36 -28 17 -27 20 -43 15 -85 l-6 -51 58 -29 58 -28
9 -68 c5 -37 13 -67 18 -67 5 0 7 13 3 30 -17 78 -14 99 16 121 26 18 31 19
50 6 20 -14 20 -16 2 -26 -29 -17 4 -13 38 4 33 18 31 28 -12 50 -33 18 -38
40 -9 42 11 1 18 -3 14 -8 -3 -5 -2 -9 3 -8 4 1 16 -1 26 -6 11 -4 34 -1 59 9
23 9 43 14 46 12 8 -9 -11 -27 -23 -22 -7 2 -16 -2 -19 -10 -3 -9 -9 -13 -14
-10 -4 2 -9 -6 -10 -19 -1 -13 3 -27 8 -30 6 -3 10 -17 10 -31 0 -13 4 -24 9
-24 6 0 6 12 0 32 -15 54 -10 61 17 29 14 -17 32 -31 40 -31 22 0 31 -35 38
-158 4 -62 11 -123 16 -135 6 -15 7 -3 4 38 l-6 60 21 -30 c16 -23 21 -26 21
-12 0 10 -7 32 -16 48 -12 25 -35 115 -48 189 -1 8 -7 24 -13 35 -8 15 -9 35
-1 68 9 44 11 46 31 36 21 -10 22 -10 2 6 -11 8 -25 13 -33 10 -8 -3 -12 2
-10 13 2 12 -3 16 -16 14 -15 -3 -18 1 -13 19 7 26 -12 78 -36 97 -30 25 -71
25 -94 0z m37 -23 c0 -18 20 -20 20 -2 1 6 10 1 21 -13 12 -14 19 -33 16 -47
-2 -13 0 -23 4 -23 16 0 10 -27 -12 -54 -11 -14 -28 -26 -36 -26 -39 0 -58 86
-27 121 15 17 14 19 -10 25 -21 5 -24 9 -15 20 15 19 39 18 39 -1z m-221 -190
c1 -5 -4 -3 -9 5 -5 8 -10 11 -10 5 -1 -22 -20 22 -19 45 0 23 1 23 19 -10 11
-19 19 -39 19 -45z m-134 -29 c18 7 27 -36 10 -53 -12 -12 -15 -10 -21 12 -3
13 -10 22 -15 19 -5 -3 -9 5 -9 18 l-1 23 -14 -25 c-20 -34 -19 -8 1 38 l17
37 9 -37 c6 -23 14 -35 23 -32z"/>
<path d="M1868 1560 c-9 -6 -15 -18 -14 -27 2 -13 14 -17 50 -18 40 0 49 -4
66 -30 26 -39 25 -70 -2 -90 -28 -19 -37 -2 -14 24 9 10 16 24 15 32 0 8 -4 6
-8 -5 -7 -18 -9 -17 -18 11 -9 24 -18 32 -49 38 -21 3 -44 14 -50 23 -12 16
-13 15 -19 -3 -4 -11 -11 -30 -16 -43 -5 -13 -9 -42 -9 -65 0 -24 -5 -48 -11
-54 -12 -12 -20 -63 -9 -63 4 0 11 11 14 24 4 17 19 29 51 41 25 10 50 25 57
34 10 13 10 14 -2 4 -8 -7 -27 -13 -43 -13 -24 0 -28 3 -24 20 3 11 1 20 -4
20 -16 0 -9 35 11 52 18 16 20 16 28 1 6 -9 16 -14 25 -10 9 3 19 1 23 -5 4
-6 8 -79 9 -162 2 -190 7 -199 148 -295 41 -28 47 -36 47 -67 0 -21 4 -33 10
-29 6 3 10 19 10 35 0 24 -10 37 -53 68 -68 51 -77 62 -73 97 1 17 -1 42 -5
56 -4 14 -2 33 3 42 6 12 5 17 -3 17 -7 0 -8 7 -4 18 4 9 8 24 10 32 1 8 5 25
9 37 4 12 2 32 -4 43 -10 18 -14 19 -28 8 -14 -11 -15 -11 -7 7 15 36 18 96 5
124 -34 75 -35 76 -70 78 -19 2 -42 -2 -52 -7z m126 -227 c8 -7 12 -22 8 -35
-5 -21 -5 -21 -14 3 -5 13 -16 27 -24 32 -8 4 -14 15 -14 23 0 15 3 14 44 -23z
m-28 -41 c0 -22 -3 -29 -10 -22 -14 14 -16 62 -2 57 6 -2 11 -18 12 -35z m16
-80 c-7 -2 -12 -16 -13 -30 0 -15 -3 -21 -6 -14 -2 6 -9 10 -14 6 -5 -3 -9 2
-9 11 0 21 43 58 49 42 2 -6 -1 -13 -7 -15z"/>
<path d="M2465 1560 c-3 -5 1 -10 9 -10 9 0 16 -5 16 -11 0 -5 4 -8 9 -5 5 4
11 1 13 -5 4 -13 48 -3 48 10 0 10 -46 31 -70 31 -10 0 -22 -4 -25 -10z"/>
<path d="M2192 1547 c-13 -6 -30 -23 -38 -37 -29 -53 -55 -118 -52 -131 2 -8
-2 -13 -7 -12 -6 1 -18 -12 -27 -28 -19 -32 -13 -36 16 -14 11 8 28 15 38 15
10 0 18 5 18 12 0 6 3 8 6 5 4 -4 2 -13 -5 -21 -9 -10 -8 -15 2 -19 8 -3 14 4
15 21 3 36 9 38 36 13 33 -31 43 -9 11 23 -36 36 -32 64 17 108 43 39 48 38
62 -9 5 -16 2 -23 -11 -26 -17 -4 -17 -5 0 -6 23 -1 22 -11 -7 -54 l-24 -35
29 -12 c15 -7 28 -15 27 -19 0 -3 0 -23 1 -43 1 -53 32 -52 55 1 17 37 17 40
-3 84 -23 50 -27 72 -11 62 6 -3 10 -2 10 4 0 5 -5 13 -10 16 -6 4 -21 28 -35
54 -31 62 -62 75 -113 48z m136 -172 c7 -14 12 -38 12 -53 -1 -26 -1 -26 -15
-8 -8 11 -15 28 -15 39 0 13 -5 17 -15 13 -18 -7 -19 0 -2 19 17 20 22 18 35
-10z"/>
<path d="M532 1537 c7 -8 27 -20 43 -28 22 -10 31 -22 33 -44 2 -23 0 -27 -7
-15 -9 13 -11 13 -11 0 0 -9 5 -21 11 -27 9 -9 6 -19 -10 -42 -23 -33 -29 -35
-47 -23 -25 16 -32 46 -19 77 7 17 14 24 14 18 1 -17 28 -17 28 0 0 22 -30 13
-66 -21 -41 -37 -50 -35 -24 4 12 19 13 25 4 20 -11 -7 -13 -5 -8 10 3 10 8
30 12 44 l6 25 -14 -25 c-8 -14 -17 -40 -20 -58 -3 -18 -10 -39 -16 -46 -11
-13 -5 -26 10 -26 5 0 17 10 29 22 l20 22 0 -26 c0 -16 16 -42 44 -71 24 -25
49 -60 56 -77 7 -16 17 -30 22 -30 5 0 1 15 -11 33 -11 18 -24 45 -30 60 -10
26 -10 27 25 22 20 -2 42 -9 48 -15 9 -7 13 -6 13 5 0 7 -3 13 -6 13 -3 -1
-18 4 -33 10 -30 12 -37 36 -15 49 15 9 30 53 18 53 -4 0 -8 12 -9 27 -3 37
-39 73 -74 73 -25 0 -27 -2 -16 -13z"/>
<path d="M2422 1533 c-13 -24 -16 -82 -6 -132 5 -21 14 -33 30 -37 12 -3 21
-11 19 -17 -2 -7 -6 -32 -9 -57 l-6 -45 30 35 c33 39 37 52 14 43 -12 -4 -15
0 -12 22 2 16 9 31 17 33 8 3 11 1 8 -4 -2 -5 21 -9 52 -10 31 0 46 1 34 3
-13 3 -23 11 -23 19 0 8 -9 14 -19 14 -17 0 -18 3 -9 28 8 22 7 34 -5 57 l-16
30 6 -50 c6 -54 -1 -66 -43 -79 -29 -9 -54 17 -54 55 0 32 16 40 23 12 4 -14
5 -12 6 5 0 12 -5 22 -11 23 -7 0 -3 5 10 11 27 14 29 28 3 28 -11 0 -21 8
-23 18 -3 15 -5 14 -16 -5z"/>
<path d="M206 1451 c-20 -38 -20 -41 1 -41 15 0 15 -1 -2 -13 -17 -13 -17 -14
5 -20 19 -5 22 -10 17 -36 -8 -39 1 -39 35 -1 29 33 26 40 -4 13 -19 -17 -19
-16 -13 12 4 17 14 35 23 42 12 10 10 12 -14 10 -20 -1 -29 3 -29 13 0 8 6 14
14 12 12 -3 12 -1 1 15 -8 10 -15 20 -16 21 -2 2 -10 -10 -18 -27z"/>
<path d="M151 1384 c-1 -7 -17 -36 -36 -65 -23 -33 -33 -58 -29 -68 6 -14 8
-13 13 4 3 11 19 41 34 67 16 26 26 53 24 60 -4 9 -6 9 -6 2z"/>
<path d="M1640 1340 c0 -6 13 -19 30 -28 33 -19 47 -42 25 -42 -9 0 -5 -9 11
-26 17 -16 24 -32 21 -45 -3 -10 -1 -19 4 -19 5 0 6 -12 3 -27 -4 -16 -4 -25
0 -22 4 4 9 20 11 35 2 17 8 28 16 26 9 -2 10 0 1 11 -12 14 -10 46 4 70 5 7
1 6 -10 -3 -16 -13 -20 -12 -32 5 -8 10 -14 28 -15 39 0 12 -3 15 -6 9 -7 -18
-20 -16 -43 7 -11 11 -20 15 -20 10z"/>
<path d="M149 1274 l-32 -65 21 -62 c12 -34 20 -51 17 -37 -19 88 -18 118 5
155 17 28 25 33 31 23 6 -8 8 -2 7 20 -1 17 -6 32 -10 32 -3 0 -21 -30 -39
-66z"/>
<path d="M2412 1318 c-7 -7 -12 -22 -12 -33 0 -12 -9 -30 -20 -40 -11 -10 -20
-26 -20 -36 0 -13 -5 -17 -17 -13 -14 4 -15 4 -5 -4 11 -7 11 -13 2 -29 -18
-28 -4 -154 16 -146 8 3 14 14 14 25 0 10 -4 16 -10 13 -16 -10 -12 11 5 25 9
8 13 21 9 36 -4 13 -2 24 4 24 6 0 7 13 3 33 -9 43 -3 70 15 63 8 -3 14 0 14
6 0 7 7 3 15 -8 12 -15 11 -11 -2 24 -15 40 -15 43 3 57 10 8 14 15 9 15 -6 0
-16 -5 -23 -12z"/>
<path d="M2672 1259 c8 -28 15 -35 29 -32 12 3 19 0 19 -8 0 -10 3 -10 12 -1
10 10 10 15 -2 22 -8 5 -18 6 -22 4 -4 -3 -5 3 -1 12 4 12 3 15 -6 10 -7 -5
-18 -1 -26 10 -12 17 -13 15 -3 -17z"/>
<path d="M2921 1218 c1 -29 0 -57 -1 -63 -1 -5 -1 -39 0 -75 2 -61 3 -63 10
-25 12 60 12 203 1 210 -6 3 -10 -15 -10 -47z"/>
<path d="M200 1245 c-7 -8 -16 -12 -20 -10 -14 8 -23 -80 -11 -103 6 -10 8
-22 6 -26 -3 -3 -2 -4 1 -1 4 2 13 -2 20 -10 11 -11 20 -11 44 -2 17 7 26 13
21 15 -5 2 -19 -1 -29 -7 -15 -8 -23 -6 -36 8 -24 26 -19 34 9 15 15 -10 25
-12 25 -5 0 6 -4 11 -9 11 -5 0 -13 19 -19 42 -9 35 -8 45 5 60 9 10 14 20 11
23 -3 3 -11 -1 -18 -10z"/>
<path d="M1405 1237 c23 -14 27 -25 31 -87 1 -25 3 -49 3 -53 1 -5 5 -6 11 -2
5 3 26 -1 47 -10 l38 -15 -42 39 c-48 44 -54 61 -20 61 23 0 59 -31 70 -60 4
-11 6 -11 6 3 1 30 -38 72 -72 77 -26 4 -31 9 -29 28 2 12 0 22 -5 23 -4 0
-19 2 -33 5 -24 3 -24 3 -5 -9z"/>
<path d="M2590 1234 c0 -10 5 -52 10 -93 9 -67 8 -77 -11 -107 -11 -19 -18
-34 -15 -34 3 0 18 21 33 48 29 49 37 102 16 102 -13 0 -14 5 -18 63 -2 31
-15 50 -15 21z"/>
<path d="M290 1225 c14 -7 25 -19 26 -27 0 -7 4 -28 8 -45 8 -33 19 -42 31
-23 3 6 1 10 -6 10 -7 0 -10 13 -7 34 2 19 0 32 -4 30 -4 -3 -8 1 -8 9 0 8
-10 17 -22 21 -37 10 -45 6 -18 -9z"/>
<path d="M491 1220 c0 -8 3 -21 8 -29 6 -9 4 -19 -5 -28 -8 -9 -14 -35 -14
-63 0 -39 4 -52 19 -60 26 -14 36 -13 24 3 -6 6 -9 26 -9 42 1 17 -3 33 -9 38
-11 8 14 29 26 21 4 -2 10 0 14 6 3 5 -5 20 -18 32 -13 13 -27 30 -30 38 -5
13 -5 13 -6 0z"/>
<path d="M1260 1220 c-8 -6 -10 -10 -4 -10 15 0 25 -112 14 -151 -11 -36 3
-46 22 -16 23 35 29 70 12 63 -8 -3 -14 -2 -15 2 -1 4 -3 31 -4 61 -4 61 -5
63 -25 51z"/>
<path d="M2105 1211 c-3 -10 -17 -31 -32 -45 -26 -27 -26 -49 1 -27 17 14 22
8 48 -54 9 -22 17 -32 17 -22 1 17 3 17 30 -2 16 -12 36 -21 45 -21 30 0 16
16 -26 31 -53 19 -81 65 -74 122 4 40 1 48 -9 18z"/>
<path d="M230 1203 c0 -5 15 -17 33 -27 17 -9 25 -11 16 -4 -9 7 -16 18 -17
23 -1 12 -32 20 -32 8z"/>
<path d="M2693 1191 c1 -19 -4 -27 -23 -32 -20 -6 -21 -7 -5 -8 36 -1 50 14
37 41 l-12 23 3 -24z"/>
<path d="M1085 1190 c-3 -5 -1 -10 4 -10 6 0 11 -5 11 -11 0 -6 -6 -9 -13 -6
-8 3 -14 0 -15 -6 -4 -46 -16 -105 -24 -121 -7 -14 -7 -17 3 -14 7 2 16 17 21
33 4 15 11 31 16 34 14 9 26 111 14 111 -6 0 -14 -4 -17 -10z"/>
<path d="M1131 1171 c-12 -22 -5 -32 16 -24 12 5 13 2 5 -13 -16 -30 -43 -129
-33 -119 10 10 39 84 48 123 4 16 1 22 -12 22 -11 0 -15 5 -11 15 8 21 -1 19
-13 -4z"/>
<path d="M2446 1145 c5 -19 0 -32 -20 -52 -26 -26 -32 -44 -19 -56 9 -10 29
21 51 81 20 51 20 52 1 52 -16 0 -18 -5 -13 -25z"/>
<path d="M1348 1153 c19 -7 15 -43 -5 -44 -11 0 -13 -3 -5 -6 22 -9 13 -58
-19 -104 l-31 -44 36 39 c19 21 36 50 38 65 4 27 14 -12 36 -139 9 -49 9 -45
4 33 -5 84 -4 87 17 87 11 0 21 -6 22 -12 0 -7 5 -3 11 10 9 17 8 26 -2 35
-10 10 -12 9 -7 -5 5 -15 1 -18 -23 -18 -28 0 -30 3 -31 38 -1 20 -1 41 0 46
3 12 -20 26 -39 25 -10 0 -11 -2 -2 -6z"/>
<path d="M2683 1135 c-8 -21 6 -33 17 -15 8 12 13 13 30 3 30 -20 38 -15 11 7
-28 24 -50 26 -58 5z"/>
<path d="M1850 1133 c29 -6 52 -22 45 -33 -3 -4 2 -13 10 -20 12 -10 15 -9 15
4 0 29 -32 56 -65 55 -27 -2 -28 -2 -5 -6z"/>
<path d="M1776 1109 c-11 -10 -17 -21 -14 -24 3 -3 13 1 21 10 9 8 21 15 27
15 6 0 8 5 5 10 -9 14 -17 12 -39 -11z"/>
<path d="M2056 1088 c18 -33 102 -99 110 -87 4 8 3 9 -4 5 -7 -4 -12 -3 -12 3
0 5 5 13 10 16 20 12 10 27 -14 21 -14 -3 -27 -2 -31 3 -11 18 -69 56 -59 39z"/>
<path d="M1740 1055 c0 -20 4 -34 9 -31 16 10 18 41 4 54 -11 11 -13 7 -13
-23z"/>
<path d="M161 1063 c0 -10 4 -27 8 -38 7 -18 8 -17 13 6 2 13 3 30 0 37 -6 18
-22 14 -21 -5z"/>
<path d="M1080 1041 c-7 -21 -10 -45 -7 -52 2 -8 8 -1 11 16 4 17 11 40 16 53
5 12 6 22 1 22 -4 0 -14 -17 -21 -39z"/>
<path d="M850 1060 c-8 -5 -26 -6 -40 -3 -14 3 -21 2 -17 -3 4 -4 45 -9 89
-10 47 -2 76 1 68 6 -7 4 -22 7 -33 4 -11 -2 -27 1 -36 6 -10 5 -23 5 -31 0z"/>
<path d="M2675 1060 c-3 -5 9 -17 27 -26 18 -9 43 -25 55 -36 12 -11 33 -21
47 -22 26 -1 35 -19 15 -31 -5 -4 -22 -4 -37 0 -20 5 -23 8 -11 16 12 7 11 9
-3 9 -10 0 -18 5 -18 12 0 9 -3 9 -12 0 -7 -7 -22 -12 -35 -12 -17 0 -23 7
-29 35 -11 60 -30 25 -32 -62 -2 -51 5 -113 19 -178 14 -67 21 -132 20 -197 0
-54 4 -120 9 -148 8 -41 7 -58 -5 -81 -15 -28 -15 -30 10 -41 14 -6 25 -17 25
-24 0 -7 4 -24 10 -38 9 -24 12 -25 35 -14 20 9 25 17 21 32 -22 79 -20 88 45
217 l64 124 0 167 c0 146 -2 168 -17 177 -11 7 -19 7 -23 1 -3 -6 -14 -10 -23
-10 -14 1 -13 4 7 20 13 11 29 20 36 20 12 0 25 21 25 40 0 4 -22 8 -49 8 -32
0 -69 9 -106 26 -66 30 -62 29 -70 16z m107 -132 c13 -13 23 -17 26 -10 2 8
10 8 27 0 14 -6 22 -15 19 -19 -3 -5 -1 -9 5 -9 5 0 10 -56 10 -138 l1 -137
-55 -110 c-30 -60 -58 -124 -61 -142 -7 -37 -34 -67 -34 -39 0 10 5 27 11 38
8 14 8 18 0 14 -20 -13 8 96 30 114 3 3 19 27 34 54 25 43 29 60 29 132 1 46
-2 84 -5 84 -4 0 -9 13 -12 29 -3 16 -9 40 -13 55 -5 22 -3 26 15 26 12 0 21
5 21 11 0 7 -10 9 -25 7 -17 -4 -25 -1 -25 8 0 8 -2 14 -4 14 -2 0 -13 3 -23
6 -11 4 -14 3 -7 -3 14 -10 54 -203 54 -259 0 -23 -9 -61 -21 -85 l-20 -44 6
67 c7 71 -3 233 -14 223 -11 -12 -17 -145 -6 -146 5 0 4 -3 -3 -6 -10 -4 -10
-8 -1 -19 9 -11 8 -14 -4 -14 -8 0 -20 7 -27 15 -9 11 -9 15 -1 15 7 0 9 5 4
13 -4 6 -8 17 -8 22 -1 6 -5 46 -10 90 -4 44 -9 87 -10 95 0 9 -4 21 -9 28
-25 40 68 58 106 20z m-37 -338 c3 -5 2 -10 -4 -10 -6 0 -8 -7 -5 -15 4 -9 0
-15 -9 -15 -9 0 -14 7 -12 18 2 9 4 20 4 25 1 10 19 9 26 -3z m0 -60 c7 -12
-16 -80 -27 -80 -4 0 -8 20 -8 45 0 33 4 45 14 45 8 0 18 -5 21 -10z"/>
<path d="M1456 991 c-31 -63 -41 -123 -25 -153 7 -13 14 -30 15 -38 0 -8 6
-43 13 -76 6 -34 14 -149 17 -255 7 -271 9 -291 22 -316 23 -41 16 -52 -30
-46 -24 3 -68 11 -99 19 -67 17 -69 17 -69 5 0 -21 281 -66 354 -57 92 12 61
40 -44 40 -55 1 -55 1 -78 46 l-23 45 23 3 c13 2 28 8 34 13 5 4 19 6 30 3 17
-4 25 13 73 154 54 158 54 160 48 245 -4 48 -12 110 -18 138 -9 42 -9 53 2 61
11 8 11 9 -2 5 -38 -12 -49 18 -29 81 7 23 11 43 9 45 -14 11 -145 70 -169 77
-28 8 -31 6 -54 -39z m129 -36 c36 -25 51 -31 57 -22 5 8 8 4 8 -11 0 -13 -4
-20 -10 -17 -5 3 -10 -3 -10 -14 0 -29 -14 -26 -50 9 -17 17 -35 30 -40 30
-14 0 49 -58 71 -65 11 -4 18 -12 16 -18 -2 -6 5 -18 15 -27 13 -10 25 -48 40
-123 20 -101 19 -140 -2 -107 -7 10 -8 1 -4 -27 4 -32 -2 -67 -25 -138 -17
-53 -31 -104 -31 -113 0 -9 -5 -24 -11 -32 -8 -12 -9 -10 -5 10 3 14 11 57 17
95 6 39 15 75 20 81 29 35 19 163 -17 234 -17 34 -28 65 -34 93 -1 6 -6 -4 -9
-23 -5 -25 0 -52 16 -93 35 -86 38 -133 15 -192 -11 -27 -23 -70 -27 -95 -4
-25 -9 -52 -11 -60 -2 -8 -7 -31 -12 -50 -8 -38 -41 -55 -43 -23 -3 67 -4 113
-2 113 2 0 9 -15 17 -32 14 -31 14 -28 15 70 1 57 6 122 12 145 5 23 9 71 7
107 -3 57 -4 62 -15 43 -11 -18 -20 -91 -24 -175 0 -10 -6 -18 -12 -18 -9 0
-12 32 -12 113 0 90 -5 124 -22 172 -13 35 -20 72 -17 90 3 17 5 40 5 52 -1
16 4 21 14 17 11 -4 13 -2 9 9 -5 14 3 19 37 26 3 0 27 -15 54 -34z m-65 -490
c0 -19 -4 -35 -10 -35 -5 0 -10 16 -10 35 0 19 5 35 10 35 6 0 10 -16 10 -35z"/>
<path d="M1804 1029 c-45 -13 -55 -29 -44 -70 12 -46 16 -240 5 -311 -6 -45
-4 -66 9 -99 25 -62 56 -215 56 -276 0 -38 4 -53 14 -53 9 0 12 -9 10 -27 -2
-16 -1 -21 2 -12 3 11 13 15 29 11 32 -6 31 -11 -3 -49 -26 -28 -33 -30 -75
-26 -31 4 -47 2 -47 -5 0 -18 35 -32 77 -32 32 0 41 5 55 30 9 17 22 30 28 30
9 0 15 -29 11 -52 0 -5 4 -8 9 -8 6 0 10 14 10 31 0 17 4 39 10 49 7 13 5 29
-5 54 -10 23 -15 70 -15 138 0 57 -7 134 -15 173 -23 109 -20 209 10 280 36
88 32 164 -11 210 -25 27 -62 31 -120 14z m66 -29 c-12 -8 -9 -10 12 -10 20 0
26 -4 22 -15 -4 -8 -2 -15 4 -15 5 0 9 -8 9 -17 0 -49 4 -64 14 -57 8 4 7 0
-1 -15 -6 -12 -18 -25 -26 -28 -12 -4 -13 -8 -3 -14 10 -6 10 -11 -2 -25 -16
-19 -20 -170 -6 -239 4 -22 10 -88 13 -146 2 -58 7 -127 11 -154 4 -36 3 -46
-6 -41 -19 12 -39 72 -50 148 -6 40 -13 88 -17 106 -5 23 -3 32 7 32 8 0 5 6
-7 15 -19 14 -19 14 1 15 16 0 14 3 -10 16 -44 22 -45 25 -34 69 5 22 11 45
12 50 1 6 6 16 10 23 5 7 4 27 -2 45 -14 46 -21 126 -10 133 15 9 10 46 -8 67
-17 18 -17 19 0 28 9 6 17 15 17 22 0 7 15 13 33 14 23 2 28 0 17 -7z"/>
<path d="M761 1023 c-9 -4 -3 -10 18 -19 21 -9 30 -18 25 -25 -4 -7 -3 -9 4
-5 6 3 13 2 17 -3 6 -11 36 -3 47 13 8 12 40 -12 33 -24 -3 -5 0 -12 6 -16 9
-5 10 1 6 22 -3 16 -4 23 -1 17 4 -8 15 -11 31 -7 l24 7 -25 -28 c-15 -16 -23
-31 -20 -34 4 -3 9 0 11 7 3 6 17 12 32 12 23 0 27 -4 29 -32 3 -41 19 -98 32
-118 8 -13 15 -9 40 19 l31 34 15 -21 c8 -12 25 -22 37 -22 25 0 85 34 105 59
11 14 12 10 8 -24 -13 -95 -17 -145 -18 -222 -1 -60 -5 -83 -14 -83 -15 0 -21
17 -29 96 -4 34 -17 82 -29 108 -21 44 -22 45 -39 26 -9 -11 -17 -23 -17 -27
0 -4 -16 -34 -36 -65 -22 -37 -33 -65 -29 -77 3 -11 -1 -26 -10 -35 -14 -13
-14 -17 -3 -21 10 -4 13 -16 10 -37 -3 -17 5 -63 16 -102 12 -39 24 -93 27
-120 6 -48 7 -48 38 -42 17 3 32 8 34 9 9 10 -48 274 -72 330 -15 36 -15 37
24 91 21 31 41 53 45 49 3 -3 6 -32 6 -63 0 -32 7 -77 16 -101 29 -82 28 -239
-2 -347 -5 -19 -2 -23 25 -28 36 -8 36 -6 16 -44 -12 -23 -22 -30 -45 -30 -22
0 -28 4 -23 15 4 12 -2 16 -28 15 -19 -1 -46 2 -61 6 -16 3 -28 2 -28 -3 0 -5
17 -14 38 -19 26 -6 37 -14 36 -27 -2 -14 7 -17 47 -17 36 0 51 4 56 16 5 13
7 13 14 2 6 -10 9 -8 9 7 0 11 7 33 16 50 8 16 13 40 9 52 -3 12 2 80 11 150
12 104 13 142 4 203 -9 62 -8 94 5 185 17 114 19 179 6 202 -5 10 -13 8 -31
-12 -13 -14 -20 -25 -15 -25 5 0 -6 -16 -25 -35 -22 -22 -43 -35 -59 -35 l-26
0 23 18 c22 17 21 32 -2 32 -6 0 -4 -5 4 -10 13 -8 12 -10 -2 -10 -10 0 -18 4
-18 10 0 5 8 14 18 19 15 9 15 12 2 20 -14 10 -9 13 56 36 6 2 21 17 33 34 33
46 7 49 -89 10 -78 -32 -80 -34 -80 -67 0 -42 -20 -112 -32 -112 -4 0 -8 13
-8 28 0 16 -6 51 -14 78 -8 27 -16 60 -18 74 -3 24 -5 25 -98 25 -52 1 -104 4
-115 8 -11 3 -26 3 -34 0z m333 -525 c8 -32 7 -38 -4 -38 -5 0 -10 8 -10 18 0
10 -5 23 -12 30 -9 9 -8 12 4 12 9 0 18 -10 22 -22z m162 -30 c-3 -29 -6 -63
-6 -75 0 -13 -4 -23 -9 -23 -6 0 -9 27 -8 61 1 33 -1 63 -5 66 -12 7 1 23 19
23 13 0 14 -9 9 -52z"/>
<path d="M719 995 c-3 -25 -9 -30 -36 -33 -17 -2 -45 4 -62 12 -43 23 -48 20
-20 -11 14 -16 31 -41 37 -57 11 -24 15 -26 29 -15 14 13 16 11 11 -13 -5 -26
-3 -28 25 -25 29 2 31 -1 43 -53 7 -30 18 -136 23 -235 6 -99 15 -193 20 -210
10 -32 34 -225 28 -231 -2 -2 -18 1 -37 6 -42 12 -53 4 -14 -10 16 -5 42 -16
57 -25 16 -8 49 -15 75 -15 39 0 49 5 73 33 l28 32 2 -40 1 -40 10 40 c5 22
11 69 13 105 1 36 5 103 8 150 l7 85 -16 -50 c-8 -27 -18 -58 -22 -68 -9 -23
-8 246 2 299 4 25 3 50 -3 60 -5 11 -20 42 -33 69 -28 62 -68 125 -79 125 -4
0 -19 11 -33 25 -14 14 -33 25 -43 25 -12 0 -14 3 -6 8 9 6 7 11 -7 20 -11 7
-20 8 -20 2 0 -5 -6 -7 -14 -4 -9 4 -16 -6 -20 -30 -4 -22 -13 -36 -21 -36 -8
0 -15 -4 -15 -10 0 -5 -5 -10 -11 -10 -14 0 -1 60 18 82 8 9 13 29 11 45 l-4
28 -5 -30z m106 -79 c37 -16 39 -25 17 -79 -7 -16 -12 -65 -12 -109 0 -75 -1
-80 -17 -67 -12 9 -11 5 3 -11 20 -23 22 -50 5 -50 -11 0 -32 66 -26 81 2 8
-3 52 -13 99 -18 87 -18 150 -1 150 5 0 25 -7 44 -14z m104 -162 c23 -52 42
-103 41 -112 0 -9 -2 -92 -5 -185 -3 -109 -10 -185 -20 -219 -8 -28 -15 -53
-15 -54 0 -1 9 0 20 3 28 7 25 -6 -10 -47 -18 -21 -33 -31 -37 -25 -5 6 -21
10 -38 10 -27 0 -30 3 -33 37 -3 33 0 38 22 44 28 7 28 4 6 139 -8 51 -4 413
6 473 3 17 8 32 13 32 4 0 26 -43 50 -96z m-106 -183 c-2 -6 2 -11 8 -11 5 0
7 -5 3 -12 -4 -6 -6 -41 -5 -77 2 -43 -1 -62 -7 -56 -9 9 -22 77 -22 115 0 8
0 25 0 38 0 15 5 22 13 19 6 -2 11 -10 10 -16z"/>
<path d="M2250 997 c30 -7 57 -11 59 -10 11 7 -11 14 -60 18 l-54 5 55 -13z"/>
<path d="M478 988 c-3 -7 2 -19 9 -27 10 -10 12 -22 6 -40 -4 -14 -7 -53 -7
-86 1 -114 1 -280 1 -390 -1 -116 8 -256 19 -315 6 -29 5 -33 -7 -24 -8 6 -33
14 -56 18 -23 3 -49 9 -59 13 -11 4 -15 3 -11 -4 8 -12 126 -46 142 -41 5 2 9
12 7 23 -1 11 4 6 12 -12 16 -36 23 -37 114 -27 89 11 51 40 -46 35 -51 -2
-53 -1 -66 31 -14 31 -13 34 7 42 12 5 34 8 50 7 24 -1 27 2 27 29 0 16 11 62
24 102 58 174 78 263 83 378 3 63 3 112 -1 109 -3 -3 -13 -53 -21 -110 -8 -57
-16 -115 -19 -129 -2 -14 -5 -28 -5 -32 -1 -5 -8 -8 -16 -8 -12 0 -15 15 -15
73 0 40 -5 99 -11 130 -13 73 -6 97 29 98 l27 1 -30 8 c-16 4 -23 8 -15 9 12
1 12 4 -3 15 -10 8 -18 16 -17 18 1 1 -2 11 -5 20 -5 14 -11 15 -25 8 -37 -20
-53 -13 -47 19 6 27 3 30 -23 36 -17 4 -30 13 -30 21 0 17 -17 19 -22 2z m85
-107 c38 3 45 -1 53 -23 11 -32 11 -41 3 -59 -5 -9 -4 -63 0 -120 7 -92 6
-114 -14 -194 -23 -88 -41 -213 -36 -248 1 -11 -5 -17 -18 -17 -12 0 -22 6
-22 13 -1 6 -3 24 -5 40 -3 27 20 40 28 16 2 -6 2 20 0 57 -4 72 6 159 33 279
19 84 17 145 -3 79 -7 -23 -19 -47 -27 -54 -13 -11 -13 -14 2 -26 17 -13 17
-15 -1 -29 -25 -19 -36 -19 -36 1 0 8 4 13 9 9 5 -3 12 -1 16 5 3 5 1 10 -5
10 -7 0 -9 8 -5 20 3 11 2 20 -3 20 -5 0 -8 15 -5 33 2 18 0 52 -5 75 -6 23
-7 44 -2 47 4 2 6 25 5 50 -1 33 1 42 8 30 5 -9 18 -15 30 -14z m105 -379 c2
-7 -5 -12 -15 -13 -10 0 -13 -3 -6 -5 9 -4 8 -16 -2 -51 -8 -26 -12 -50 -9
-55 3 -4 0 -8 -5 -8 -6 0 -11 -11 -11 -24 0 -14 -5 -28 -12 -32 -14 -9 -6 58
18 145 16 56 32 73 42 43z m-136 -82 c-2 -49 -6 -90 -10 -90 -4 0 -7 41 -8 90
-1 60 3 90 10 90 7 0 10 -29 8 -90z"/>
<path d="M2330 995 c-1 -5 -2 -14 -1 -18 1 -5 -31 -8 -71 -7 -97 2 -98 2 -93
-12 2 -7 0 -29 -4 -48 -5 -19 -9 -30 -10 -23 -1 7 -7 10 -14 7 -11 -4 -12 -17
-6 -54 4 -28 10 -54 13 -59 12 -19 44 -195 38 -209 -3 -8 -20 -40 -38 -70 -18
-30 -46 -86 -61 -124 -15 -41 -37 -77 -50 -85 -13 -9 -23 -25 -23 -37 -1 -11
-7 -32 -15 -46 -19 -34 -19 -48 1 -24 15 18 15 17 11 -17 -5 -31 -1 -41 27
-68 30 -29 66 -41 66 -22 0 11 -50 61 -61 61 -10 0 -12 70 -3 95 6 15 8 15 25
-1 23 -21 45 -13 53 21 4 14 22 54 41 88 l35 62 0 -78 c0 -52 -5 -88 -16 -109
-11 -22 -13 -33 -5 -41 6 -6 11 -24 11 -40 0 -25 -3 -28 -22 -22 -13 4 -32 9
-43 12 -20 5 -20 5 0 -10 11 -8 37 -17 58 -21 36 -7 37 -6 25 13 -9 15 -10 23
-1 32 8 8 14 2 24 -25 12 -34 16 -36 55 -36 24 0 45 4 49 9 5 9 -53 31 -81 31
-10 0 -44 73 -44 94 0 5 13 6 28 3 19 -4 29 -2 29 6 1 48 38 320 54 397 11 52
22 103 24 113 1 9 0 17 -4 17 -12 0 -61 -139 -55 -155 3 -7 -2 -30 -12 -50 -9
-19 -14 -38 -11 -41 5 -5 -13 -28 -77 -94 -44 -46 -72 -89 -80 -124 -5 -22
-10 -26 -18 -18 -9 9 -7 19 9 40 12 16 27 49 33 73 15 55 60 129 80 129 13 0
13 1 0 10 -11 7 -11 10 -2 10 7 0 12 6 11 13 -4 29 2 39 19 33 16 -6 16 -5 0
7 -10 8 -17 26 -16 43 0 16 -7 64 -15 106 -9 43 -14 85 -11 95 5 15 4 16 -5 3
-9 -13 -11 -11 -11 7 0 12 8 27 18 32 16 10 15 11 -3 12 -14 1 -11 4 10 9 17
4 22 8 13 9 -22 1 -24 19 -3 27 8 4 12 10 9 15 -7 11 7 11 25 0 8 -5 11 -15 8
-23 -3 -8 -1 -21 4 -29 6 -11 11 -11 21 -1 9 9 9 12 -4 12 -11 0 -15 6 -11 18
3 13 14 17 44 17 25 0 39 -4 39 -12 0 -7 5 -13 10 -13 13 0 13 23 1 36 -5 5
-11 20 -14 34 -2 14 -5 21 -7 15z m-75 -562 c-4 -16 -9 -53 -10 -85 -5 -91
-21 -102 -29 -19 -5 55 -3 79 9 101 20 38 40 40 30 3z"/>
<path d="M2367 993 c-11 -10 -8 -55 3 -48 6 3 14 -4 19 -17 9 -21 10 -21 10
10 1 17 5 32 10 32 16 0 22 -18 9 -23 -9 -4 -10 -8 -3 -14 6 -4 12 -21 13 -38
2 -23 -1 -26 -10 -17 -7 7 -19 12 -27 11 -11 0 -12 -2 -3 -6 6 -2 10 -9 6 -14
-3 -5 0 -9 7 -9 14 0 8 -58 -11 -105 -16 -42 -29 -16 -31 60 l-2 60 -7 -60
c-4 -36 -1 -84 6 -120 7 -34 10 -73 7 -87 -3 -15 2 -48 11 -75 27 -85 66 -332
56 -359 -6 -16 -6 -24 1 -24 15 0 6 -43 -10 -48 -9 -3 -11 0 -6 8 6 9 -1 10
-26 5 -79 -17 -56 -37 43 -37 77 -1 87 6 89 57 1 21 3 24 6 10 3 -11 10 -24
15 -30 7 -7 8 -2 2 15 -4 14 -8 42 -9 63 0 21 -6 42 -13 46 -22 13 -57 313
-43 371 4 19 25 69 46 110 43 86 53 115 61 185 4 28 13 59 22 70 8 11 -4 1
-27 -23 -24 -24 -39 -47 -35 -54 4 -6 3 -8 -3 -5 -6 4 -18 -2 -28 -13 -22 -25
-30 -25 -53 -2 -15 15 -16 20 -4 45 9 17 21 27 36 27 13 0 30 8 39 18 20 22
22 33 5 27 -28 -9 -138 -13 -144 -4 -6 11 -18 12 -27 2z m169 -147 c3 -7 -15
-57 -40 -110 -25 -54 -46 -104 -46 -112 0 -9 -5 -24 -10 -34 -7 -13 -7 -21 0
-25 6 -4 8 -10 5 -15 -2 -4 0 -32 5 -61 5 -30 11 -79 14 -109 3 -30 8 -69 12
-86 3 -19 2 -34 -5 -38 -11 -7 -11 -11 -40 153 -11 63 -18 118 -16 122 3 4 -2
9 -10 13 -20 7 -19 24 3 29 13 4 12 5 -5 6 -20 1 -21 4 -13 27 6 14 10 49 10
77 0 30 9 70 20 95 11 24 19 49 17 55 -1 7 15 14 38 18 22 3 44 7 48 8 4 0 10
-5 13 -13z m-28 -678 c-3 -49 -5 -53 -29 -56 -24 -3 -26 -1 -28 47 -1 52 -2
50 52 60 4 0 7 -23 5 -51z"/>
<path d="M1410 788 c-5 -34 15 -78 36 -78 4 0 0 8 -9 18 -8 9 -17 35 -19 57
l-3 40 -5 -37z"/>
<path d="M2631 311 c-7 -5 -15 -21 -16 -36 -2 -15 -11 -35 -21 -46 -9 -10 -12
-19 -7 -19 6 0 13 7 17 15 13 35 27 13 25 -41 -2 -53 0 -59 29 -85 35 -31 52
-37 52 -16 -1 16 -20 39 -45 53 -17 10 -20 20 -17 80 2 38 6 77 8 87 6 19 -3
22 -25 8z"/>
<path d="M2735 188 c-4 -9 1 -30 9 -47 22 -42 20 -53 -6 -47 -15 4 -12 1 7 -9
17 -8 47 -14 68 -15 31 0 38 3 35 18 -3 12 -12 16 -32 14 -35 -4 -56 13 -56
47 0 14 -4 33 -10 41 -8 12 -10 12 -15 -2z"/>
<path d="M70 160 c-7 -5 -3 -10 12 -13 33 -10 60 -8 54 2 -8 12 -52 19 -66 11z"/>
<path d="M2585 95 c17 -8 39 -14 50 -14 18 0 17 1 -5 14 -14 8 -36 14 -50 14
-24 -1 -24 -1 5 -14z"/>
</g>
</svg>
